<svg width="185" height="182" viewBox="0 0 185 182" fill="none" xmlns="http://www.w3.org/2000/svg">
<circle cx="94.5726" cy="92.9904" r="70.2561" transform="rotate(18.2449 94.5726 92.9904)" fill="#B61AA9"/>
<circle cx="88.7068" cy="87.1634" r="69.0235" transform="rotate(18.2449 88.7068 87.1634)" fill="#FC5BF9"/>
<circle cx="88.7066" cy="87.1633" r="55.4653" transform="rotate(18.2449 88.7066 87.1633)" fill="url(#paint0_radial_298_79)"/>
<path d="M83.9148 104.356C83.2978 105.837 81.4994 105.99 81.3159 107.893C80.1726 107.002 80.6087 105.146 80.6087 105.146C79.2476 106.835 78.0204 105.759 76.7589 108.088C74.8135 105.277 77.6702 102.107 77.6702 102.107C77.6702 102.107 76.3618 101.964 75.374 102.905C74.9195 101.128 77.0342 99.2266 79.3767 99.0008C76.7198 98.156 73.9491 98.6649 72.3137 100.024C69.8488 102.073 70.6958 104.696 67.5575 106.861C69.9333 108.519 72.839 106.686 72.839 106.686C70.8325 109.751 72.9946 112.811 69.2345 115.616C75.5798 118.351 80.2886 110.634 80.2886 110.634C80.2886 110.634 81.4689 112.432 80.2528 114.872C84.7275 114.656 87.1945 107.475 84.0814 102.596C84.1832 103.233 84.1247 103.85 83.9148 104.356Z" fill="#FFBFFE"/>
<path d="M106.429 92.7292C103.485 95.6867 100.39 97.9518 97.8658 99.5507C94.9604 101.391 92.426 102.614 90.8823 103.292L96.0015 117.057C96.4149 118.169 97.1659 118.203 97.679 117.132L107.555 96.517C107.889 95.822 107.871 95.2846 107.491 94.6132L106.429 92.7292Z" fill="#FFBFFE"/>
<path d="M115.668 57.8182C115.636 57.4638 115.552 57.0388 115.293 56.8442C115.035 56.6491 114.601 56.6844 114.253 56.7498C112.226 57.1321 108.009 58.0988 103.269 60.1913L115.379 69.3253C116.087 64.1914 115.857 59.8702 115.668 57.8182Z" fill="#FFBFFE"/>
<path d="M90.3371 69.0505C80.3724 79.6052 79.2946 94.9148 79.2946 94.9148L88.5778 101.917C88.5778 101.917 103.002 96.6735 110.414 84.1923C112.836 80.1142 114.22 75.7486 114.987 71.7195L101.075 61.2271C97.4104 63.0718 93.5934 65.6026 90.3375 69.051L90.3371 69.0505ZM105.837 77.3539C105.837 80.6753 103.144 83.3679 99.8224 83.3679C96.5006 83.3679 93.8078 80.6753 93.8078 77.3539C93.8078 74.032 96.5005 71.3398 99.8224 71.3398C103.144 71.3398 105.837 74.0319 105.837 77.3539Z" fill="#FFBFFE"/>
<path d="M79.0183 85.3335C79.8631 82.4674 81.19 78.8691 83.2245 75.2261L81.1187 74.7209C80.3682 74.5416 79.8483 74.6713 79.2707 75.1828L62.1642 90.3426C61.2766 91.1294 61.5155 91.8418 62.6979 91.9347L77.3392 93.0749C77.5676 91.4042 78.048 88.6313 79.0184 85.3331L79.0183 85.3335Z" fill="#FFBFFE"/>
<defs>
<radialGradient id="paint0_radial_298_79" cx="0" cy="0" r="1" gradientUnits="userSpaceOnUse" gradientTransform="translate(88.7066 87.1633) rotate(90) scale(55.4653)">
<stop offset="0.875" stop-color="#E642E9"/>
<stop offset="1" stop-color="#D226B2"/>
</radialGradient>
</defs>
</svg>
