<svg width="181" height="178" viewBox="0 0 181 178" fill="none" xmlns="http://www.w3.org/2000/svg">
<circle cx="92.6155" cy="91.0657" r="68.802" transform="rotate(18.2449 92.6155 91.0657)" fill="#D7862C"/>
<circle cx="86.8709" cy="85.3593" r="67.5949" transform="rotate(18.2449 86.8709 85.3593)" fill="#FCC65B"/>
<circle cx="86.871" cy="85.3591" r="54.3174" transform="rotate(18.2449 86.871 85.3591)" fill="url(#paint0_radial_298_62)"/>
<path d="M68.8104 125.581L72.68 113.843L70.2867 113.054C68.0074 112.302 66.3329 110.866 65.2633 108.744C64.1938 106.623 64.0347 104.422 64.7861 102.143L67.8668 92.7978L78.4657 96.2917L77.5265 99.1409C77.1508 100.281 77.2051 101.394 77.6894 102.48C78.2747 103.515 79.1371 104.221 80.2768 104.596L82.6701 105.385C83.7338 105.736 84.7708 105.657 85.781 105.147C86.8923 104.587 87.6358 103.737 88.0115 102.597L89.364 98.4945C89.7397 97.3548 89.6349 96.2673 89.0496 95.2321C88.5653 94.1458 87.7913 93.4274 86.7276 93.0767L77.8382 90.1463C75.5588 89.3949 73.8844 87.9585 72.8148 85.837C71.7453 83.7154 71.5862 81.515 72.3376 79.2357L77.973 62.1406C78.6993 59.9372 80.1233 58.3008 82.2448 57.2312C84.3663 56.1616 86.5667 56.0025 88.8461 56.7539L91.2394 57.5429L95.109 45.8042L105.594 49.2606L101.724 60.9993L104.118 61.7882C106.397 62.5396 108.071 63.9761 109.141 66.0976C110.211 68.2191 110.382 70.3816 109.656 72.5849L106.538 82.0442L95.9387 78.5502L96.9155 75.5871C97.2661 74.5234 97.1488 73.4739 96.5635 72.4386C96.0792 71.3524 95.3052 70.6339 94.2415 70.2833L91.8482 69.4943C90.7086 69.1186 89.5831 69.2109 88.4718 69.7712C87.4616 70.2805 86.7811 71.067 86.4305 72.1307L85.078 76.2335C84.7023 77.3732 84.7566 78.4861 85.2408 79.5723C85.8261 80.6076 86.6886 81.3131 87.8283 81.6888L96.6038 84.5817C98.8831 85.3331 100.545 86.8075 101.59 89.005C102.659 91.1265 102.831 93.289 102.104 95.4923L96.3187 113.043C95.5414 115.146 94.1045 116.694 92.0081 117.687C89.9116 118.681 87.7617 118.814 85.5583 118.088L83.165 117.299L79.2953 129.038L68.8104 125.581Z" fill="#FDDA77"/>
<defs>
<radialGradient id="paint0_radial_298_62" cx="0" cy="0" r="1" gradientUnits="userSpaceOnUse" gradientTransform="translate(86.871 85.3591) rotate(90) scale(54.3174)">
<stop offset="0.875" stop-color="#E9AC42"/>
<stop offset="1" stop-color="#D28826"/>
</radialGradient>
</defs>
</svg>
