<svg width="145" height="141" viewBox="0 0 145 141" fill="none" xmlns="http://www.w3.org/2000/svg">
<circle cx="75.0403" cy="71.4706" r="68.9887" fill="#1A50B6"/>
<circle cx="67.7784" cy="67.8396" r="67.7784" fill="#5B9EFC"/>
<circle cx="67.7784" cy="67.8398" r="54.4648" fill="url(#paint0_radial_298_74)"/>
<path d="M104.253 85.5852L104.617 86.6908C104.818 87.3011 104.487 87.9584 103.878 88.1599L50.9102 105.621C50.3009 105.821 49.6436 105.489 49.442 104.879L49.0775 103.774C48.8769 103.163 49.2081 102.506 49.8171 102.305L102.784 84.8439C103.394 84.6434 104.051 84.9752 104.253 85.5852ZM87.71 87.3621L63.434 95.3647L60.5193 86.523C59.0874 82.1794 60.0777 77.403 63.1174 73.9934C66.1573 70.5831 70.7843 69.0578 75.2559 69.9919C79.7273 70.9254 83.3639 74.1764 84.7958 78.5202L87.71 87.3621ZM90.7607 48.3698L91.4895 50.5806C91.9815 52.1518 91.6079 53.8656 90.5073 55.0877C89.4071 56.3092 87.7434 56.8576 86.132 56.53C84.5209 56.2018 83.2014 55.0462 82.662 53.4906L81.9334 51.2803C81.7326 50.6695 82.0633 50.0122 82.6728 49.8108L88.9736 47.7337L88.9731 47.7338C89.2884 47.548 89.67 47.512 90.0148 47.6344C90.3597 47.7573 90.6329 48.0269 90.7608 48.3704L90.7607 48.3698ZM48.8276 62.1931L48.8283 62.1935C48.6275 61.5827 48.9582 60.9254 49.5671 60.7241L56.1888 58.5412C56.7978 58.3416 57.454 58.6736 57.6557 59.2835L58.3845 61.4943L58.3843 61.4938C58.8758 63.0652 58.5027 64.7788 57.4021 66.0009C56.3014 67.2226 54.6382 67.7708 53.0268 67.4432C51.4152 67.1151 50.0962 65.9594 49.5568 64.4038L48.8276 62.1931ZM59.8622 58.5556L59.8629 58.5559C59.6628 57.9454 59.9935 57.2882 60.6018 57.0865L67.2234 54.9037C67.8329 54.7039 68.4892 55.0358 68.6913 55.6456L69.4201 57.8564L69.4199 57.8559C69.9407 59.4357 69.5809 61.1725 68.475 62.4128C67.3697 63.6529 65.6872 64.2076 64.0611 63.8679C62.435 63.5282 61.1123 62.346 60.5915 60.7662L59.8622 58.5556ZM70.8978 54.9176L70.8985 54.918C70.6979 54.3077 71.0281 53.6506 71.6364 53.4489L78.2581 51.2661C78.8674 51.0658 79.5241 51.3975 79.7259 52.008L80.4547 54.2188L80.4546 54.2183C80.9466 55.7895 80.5729 57.5033 79.4723 58.7254C78.3721 59.9469 76.7085 60.4953 75.097 60.1677C73.4859 59.8394 72.1664 58.6839 71.6271 57.1283L70.8978 54.9176ZM40.4137 46.1499C40.4376 45.6683 40.7533 45.2513 41.2098 45.0986L75.6857 33.7336C76.1433 33.5844 76.6463 33.732 76.9519 34.105L86.6494 46.0493L81.9442 47.6004C81.1357 47.8805 80.4525 48.4382 80.0161 49.175C79.2273 48.8427 78.3464 48.8005 77.5297 49.0556L70.908 51.2385C70.1002 51.5189 69.4176 52.0765 68.9815 52.8125C68.1922 52.4804 67.3118 52.4381 66.4951 52.6932L59.8734 54.8761C59.0656 55.1565 58.3825 55.7142 57.9459 56.4505C57.1571 56.1182 56.2767 56.0759 55.4605 56.3308L48.8388 58.5136C48.0305 58.7942 47.3479 59.3518 46.9108 60.0882C46.1218 59.7554 45.2414 59.7131 44.4249 59.9687L39.7247 61.5181L40.4137 46.1499ZM37.7945 65.8317C37.693 65.4795 37.7523 65.1003 37.9566 64.7963C38.161 64.493 38.4892 64.295 38.8532 64.2569L45.154 62.1798C45.7633 61.9795 46.42 62.3112 46.6219 62.9217L47.3507 65.1325L47.3505 65.132C47.842 66.7034 47.4689 68.417 46.3682 69.6391C45.2675 70.8608 43.6039 71.4092 41.9929 71.0814C40.3814 70.7533 39.0623 69.5976 38.523 68.042L37.7945 65.8317ZM44.0198 73.582C45.3395 73.3152 46.5616 72.6944 47.5551 71.7853C48.5488 70.8768 49.2766 69.7142 49.6609 68.4227C51.5047 69.8486 53.934 70.2669 56.146 69.5377C58.3572 68.8088 60.0617 67.0279 60.6961 64.7849C62.5396 66.2115 64.9696 66.6301 67.1816 65.901C69.3928 65.172 71.0981 63.3902 71.7319 61.1469C73.5752 62.573 76.0051 62.9911 78.2165 62.2621C80.4279 61.5331 82.1327 59.7521 82.7666 57.5093C83.8411 58.3233 85.1167 58.8276 86.4567 58.9681C87.7961 59.1082 89.1481 58.8782 90.3658 58.3039L98.7459 83.7249L89.9185 86.6349L87.0039 77.7932C85.3116 72.6596 81.0138 68.8174 75.7289 67.7139C70.4445 66.6107 64.976 68.4133 61.3832 72.443C57.791 76.473 56.6203 82.1178 58.3126 87.2514L61.2272 96.0931L52.3999 99.003L44.0198 73.582Z" fill="#A4DCFF"/>
<defs>
<radialGradient id="paint0_radial_298_74" cx="0" cy="0" r="1" gradientUnits="userSpaceOnUse" gradientTransform="translate(67.7784 67.8398) rotate(90) scale(54.4648)">
<stop offset="0.875" stop-color="#4288E9"/>
<stop offset="1" stop-color="#2662D2"/>
</radialGradient>
</defs>
</svg>
